0
SECTION
2
HEADER
9
$INSUNITS
70
4
9
$ACADVER
1
AC1014
9
$HANDSEED
5
FFFF
0
ENDSEC
0
SECTION
2
TABLES
0
TABLE
2
VPORT
5
8
100
AcDbSymbolTable
0
ENDTAB
0
TABLE
2
LTYPE
5
5
100
AcDbSymbolTable
0
LTYPE
5
14
100
AcDbSymbolTableRecord
100
AcDbLinetypeTableRecord
2
BYBLOCK
70
0
0
LTYPE
5
15
100
AcDbSymbolTableRecord
100
AcDbLinetypeTableRecord
2
BYLAYER
70
0
0
ENDTAB
0
TABLE
2
LAYER
5
2
100
AcDbSymbolTable
70
2
0
LAYER
5
50
100
AcDbSymbolTableRecord
100
AcDbLayerTableRecord
2
0
70
0
6
CONTINUOUS
0
ENDTAB
0
TABLE
2
STYLE
5
3
100
AcDbSymbolTable
70
1
0
STYLE
5
11
100
AcDbSymbolTableRecord
100
AcDbTextStyleTableRecord
2
STANDARD
70
0
0
ENDTAB
0
TABLE
2
VIEW
5
6
100
AcDbSymbolTable
70
0
0
ENDTAB
0
TABLE
2
UCS
5
7
100
AcDbSymbolTable
70
0
0
ENDTAB
0
TABLE
2
APPID
5
9
100
AcDbSymbolTable
70
2
0
APPID
5
12
100
AcDbSymbolTableRecord
100
AcDbRegAppTableRecord
2
ACAD
70
0
0
ENDTAB
0
TABLE
2
DIMSTYLE
5
A
100
AcDbSymbolTable
70
1
0
ENDTAB
0
TABLE
2
BLOCK_RECORD
5
1
100
AcDbSymbolTable
70
1
0
BLOCK_RECORD
5
1F
100
AcDbSymbolTableRecord
100
AcDbBlockTableRecord
2
*MODEL_SPACE
0
BLOCK_RECORD
5
1B
100
AcDbSymbolTableRecord
100
AcDbBlockTableRecord
2
*PAPER_SPACE
0
ENDTAB
0
ENDSEC
0
SECTION
2
BLOCKS
0
BLOCK
5
20
100
AcDbEntity
100
AcDbBlockBegin
2
*MODEL_SPACE
0
ENDBLK
5
21
100
AcDbEntity
100
AcDbBlockEnd
0
BLOCK
5
1C
100
AcDbEntity
100
AcDbBlockBegin
2
*PAPER_SPACE
0
ENDBLK
5
1D
100
AcDbEntity
100
AcDbBlockEnd
0
ENDSEC
0
SECTION
2
ENTITIES
0
CIRCLE
5
100
100
AcDbEntity
8
0
100
AcDbCircle
10
52.000000000000014
20
-5.9999999999999947
30
0
40
2
210
0
220
-0
230
1
0
CIRCLE
5
101
100
AcDbEntity
8
0
100
AcDbCircle
10
38.500000000000007
20
-143
30
0
40
2
210
0
220
-0
230
1
0
LWPOLYLINE
5
102
100
AcDbEntity
8
0
100
AcDbPolyline
90
16
70
1
43
0.0
10
3.1578947368421062
20
-138.74673055480193
42
-0.49454312338581968
10
-8.3266726846886741e-15
20
-136.33484861008833
10
-4.9960036108132044e-15
20
-12.665151389911681
42
-0.49454312338581824
10
3.157894736842104
20
-10.253269445198079
42
0.52779711475215685
10
11.961110810202021
20
-2.7631578947368407
42
-0.44545000742666141
10
14.447221813845594
20
1.2498419454232356e-15
10
62.552778186154413
20
-5.5511151231257827e-16
42
-0.44545000742666119
10
65.038889189797985
20
-2.7631578947368372
42
0.52779711475215529
10
73.842105263157904
20
-10.253269445198086
42
-0.49454312338582146
10
77.000000000000014
20
-12.665151389911689
10
77.000000000000014
20
-136.33484861008833
42
-0.49454312338581974
10
73.842105263157904
20
-138.74673055480193
42
0.52779711475215396
10
65.038889189797985
20
-146.23684210526315
42
-0.44545000742666208
10
62.552778186154413
20
-149
10
14.447221813845594
20
-149
42
-0.44545000742665963
10
11.961110810202019
20
-146.23684210526315
42
0.52779711475215441
0
CIRCLE
5
103
100
AcDbEntity
8
0
100
AcDbCircle
10
19.000000000000004
20
-29.000000000000004
30
0
40
7.0000000000000018
210
0
220
-0
230
1
0
CIRCLE
5
104
100
AcDbEntity
8
0
100
AcDbCircle
10
5
20
-57
30
0
40
1.5000000000000002
210
0
220
-0
230
1
0
CIRCLE
5
105
100
AcDbEntity
8
0
100
AcDbCircle
10
7.0000000000000018
20
-41.000000000000007
30
0
40
1.6000000000000003
210
0
220
-0
230
1
0
CIRCLE
5
106
100
AcDbEntity
8
0
100
AcDbCircle
10
31.000000000000007
20
-41.000000000000007
30
0
40
1.6000000000000014
210
0
220
-0
230
1
0
CIRCLE
5
107
100
AcDbEntity
8
0
100
AcDbCircle
10
59
20
-91.000000000000014
30
0
40
1.5000000000000036
210
0
220
-0
230
1
0
CIRCLE
5
108
100
AcDbEntity
8
0
100
AcDbCircle
10
31.000000000000007
20
-17
30
0
40
1.6000000000000014
210
0
220
-0
230
1
0
CIRCLE
5
109
100
AcDbEntity
8
0
100
AcDbCircle
10
7.0000000000000018
20
-17
30
0
40
1.6000000000000003
210
0
220
-0
230
1
0
CIRCLE
5
110
100
AcDbEntity
8
0
100
AcDbCircle
10
5
20
-91.000000000000014
30
0
40
1.5000000000000002
210
0
220
-0
230
1
0
CIRCLE
5
111
100
AcDbEntity
8
0
100
AcDbCircle
10
59
20
-57
30
0
40
1.5000000000000036
210
0
220
-0
230
1
0
CIRCLE
5
112
100
AcDbEntity
8
0
100
AcDbCircle
10
52.000000000000014
20
-5.9999999999999947
30
0
40
2
210
0
220
0
230
1
0
CIRCLE
5
113
100
AcDbEntity
8
0
100
AcDbCircle
10
38.500000000000007
20
-143
30
0
40
2
210
0
220
0
230
1
0
LWPOLYLINE
5
114
100
AcDbEntity
8
0
100
AcDbPolyline
90
16
70
1
43
0.0
10
3.1578947368421009
20
-138.74673055480193
42
-0.49454312338581857
10
-8.0491169285323849e-15
20
-136.33484861008833
10
-2.2204460492503131e-15
20
-12.665151389911681
42
-0.49454312338581841
10
3.1578947368421053
20
-10.253269445198079
42
0.52779711475215629
10
11.961110810202019
20
-2.7631578947368416
42
-0.44545000742666135
10
14.447221813845594
20
3.0531133177191805e-15
10
62.552778186154413
20
8.3266726846886741e-16
42
-0.4454500074266613
10
65.038889189797985
20
-2.7631578947368372
42
0.52779711475215652
10
73.842105263157904
20
-10.253269445198081
42
-0.49454312338581924
10
77.000000000000014
20
-12.665151389911689
10
77.000000000000014
20
-136.33484861008833
42
-0.49454312338581857
10
73.842105263157904
20
-138.74673055480193
42
0.52779711475215574
10
65.038889189797985
20
-146.23684210526315
42
-0.44545000742666208
10
62.552778186154413
20
-149
10
14.447221813845594
20
-149
42
-0.44545000742666202
10
11.961110810202019
20
-146.23684210526315
42
0.52779711475215618
0
CIRCLE
5
115
100
AcDbEntity
8
0
100
AcDbCircle
10
19.000000000000004
20
-29.000000000000004
30
0
40
7.0000000000000018
210
-0
220
0
230
1
0
CIRCLE
5
116
100
AcDbEntity
8
0
100
AcDbCircle
10
5
20
-57
30
0
40
1.5000000000000002
210
-0
220
0
230
1
0
CIRCLE
5
117
100
AcDbEntity
8
0
100
AcDbCircle
10
7.0000000000000018
20
-41.000000000000007
30
0
40
1.6000000000000003
210
-0
220
0
230
1
0
CIRCLE
5
118
100
AcDbEntity
8
0
100
AcDbCircle
10
31.000000000000007
20
-41.000000000000007
30
0
40
1.6000000000000014
210
-0
220
0
230
1
0
CIRCLE
5
119
100
AcDbEntity
8
0
100
AcDbCircle
10
59
20
-91.000000000000014
30
0
40
1.5000000000000036
210
-0
220
0
230
1
0
CIRCLE
5
120
100
AcDbEntity
8
0
100
AcDbCircle
10
31.000000000000007
20
-17
30
0
40
1.6000000000000014
210
-0
220
0
230
1
0
CIRCLE
5
121
100
AcDbEntity
8
0
100
AcDbCircle
10
7.0000000000000018
20
-17
30
0
40
1.6000000000000003
210
-0
220
0
230
1
0
CIRCLE
5
122
100
AcDbEntity
8
0
100
AcDbCircle
10
5
20
-91.000000000000014
30
0
40
1.5000000000000002
210
-0
220
0
230
1
0
CIRCLE
5
123
100
AcDbEntity
8
0
100
AcDbCircle
10
59
20
-57
30
0
40
1.5000000000000036
210
-0
220
0
230
1
0
ENDSEC
0
SECTION
2
OBJECTS
0
DICTIONARY
5
C
100
AcDbDictionary
3
ACAD_GROUP
350
D
3
ACAD_MLINESTYLE
350
17
0
DICTIONARY
5
D
100
AcDbDictionary
0
DICTIONARY
5
1A
330
C
100
AcDbDictionary
0
DICTIONARY
5
17
100
AcDbDictionary
0
ENDSEC
0
EOF
